<svg width="500" height="500" viewBox="0 0 500 500" fill="none" xmlns="http://www.w3.org/2000/svg">
<rect width="500" height="500" rx="50" fill="#334155"/>
<path d="M147.4 412.8C144.733 412.8 141.267 412.4 137 411.6C132.733 410.8 128.333 409.2 123.8 406.8C119.533 404.667 115.933 401.2 113 396.4C110.067 391.6 108.6 385.2 108.6 377.2C108.6 370.533 109.933 361.867 112.6 351.2C115.267 340.267 119.8 324.4 126.2 303.6C131 287.867 135.667 272.4 140.2 257.2C145 241.733 148.867 225.733 151.8 209.2C155 192.667 156.6 175.067 156.6 156.4C156.6 145.467 155.933 136.267 154.6 128.8C153.267 121.333 150.733 115.733 147 112C143.533 108 138.6 106 132.2 106C125.8 106 120.2 107.733 115.4 111.2C110.6 114.667 106.6 119.333 103.4 125.2C100.2 130.8 97.8 137.067 96.2 144C94.6 150.933 93.8 157.867 93.8 164.8C93.8 176.533 95.8 186.267 99.8 194C86.7333 194 77.2667 190.933 71.4 184.8C65.5333 178.667 62.6 171.067 62.6 162C62.6 154 64.6 145.733 68.6 137.2C72.6 128.667 78.0667 120.933 85 114C92.2 106.8 100.467 101.067 109.8 96.8C119.133 92.2667 129.133 90 139.8 90C157.933 90 171.667 96.6667 181 110C190.6 123.333 195.4 142.267 195.4 166.8C195.4 185.2 192.867 204.4 187.8 224.4C183 244.133 176.867 265.733 169.4 289.2C166.733 297.733 163.533 307.2 159.8 317.6C156.333 327.733 153.133 338.267 150.2 349.2C147.533 359.867 146.2 370.533 146.2 381.2C146.2 386.267 146.733 389.733 147.8 391.6C149.133 393.733 151.533 394.8 155 394.8C162.2 394.8 169.8 391.733 177.8 385.6C186.067 379.467 194.333 371.2 202.6 360.8C210.867 350.4 218.733 338.8 226.2 326C233.933 313.2 241 300.133 247.4 286.8C253.8 273.2 259.133 260.4 263.4 248.4C267.667 236.133 270.467 225.467 271.8 216.4C281.933 216.4 289.8 219.2 295.4 224.8C301 230.4 303.8 235.733 303.8 240.8C303.8 243.467 302.6 248 300.2 254.4C298.067 260.8 294.333 270.267 289 282.8C284.733 292.933 280.333 303.733 275.8 315.2C271.267 326.4 267.4 337.6 264.2 348.8C261.267 359.733 259.8 370 259.8 379.6C259.8 384.933 260.467 388.8 261.8 391.2C263.4 393.6 266.2 394.8 270.2 394.8C277.667 394.8 286.2 391.067 295.8 383.6C305.667 376.4 315.8 366.533 326.2 354C336.6 341.2 346.733 326.933 356.6 311.2C366.467 295.2 375.4 278.667 383.4 261.6C391.4 244.533 397.667 227.733 402.2 211.2C407 194.667 409.4 179.6 409.4 166C409.4 151.333 406.733 140.933 401.4 134.8C396.333 128.667 389.933 124.267 382.2 121.6C387 113.867 392.067 108.267 397.4 104.8C403 101.067 407.933 99.2 412.2 99.2C418.333 99.2 424.6 103.2 431 111.2C437.667 118.933 441 131.2 441 148C441 162.133 438.2 178.4 432.6 196.8C427.267 215.2 419.8 234.4 410.2 254.4C400.867 274.133 390.067 293.467 377.8 312.4C365.8 331.067 352.867 348 339 363.2C325.4 378.4 311.667 390.4 297.8 399.2C283.933 408.267 270.733 412.8 258.2 412.8C251.267 412.8 245 411.333 239.4 408.4C234.067 405.733 229.8 401.733 226.6 396.4C223.667 391.333 222.2 385.333 222.2 378.4C222.2 375.2 222.6 371.867 223.4 368.4C224.2 364.933 225.133 361.467 226.2 358C213.133 374.533 199.933 387.733 186.6 397.6C173.533 407.733 160.467 412.8 147.4 412.8Z" fill="white"/>
</svg>
